# xmcd
#
# Track frame offsets: 
#        150
#        9873
#        22685
#        37431
#        53955
#        64288
#        78079
#        88129
#        103754
#        120278
#
# Disc length: 1842 seconds
#
# Revision: 0
# Processed by: cddbd v1.5.2PL0 Copyright (c) Steve Scherf et al.
# Submitted via: ExactAudioCopy v0.95b4
#
DISCID=7407300a
DTITLE=Tribute To - Pickin' On Alan Jackson
DYEAR=2002
DGENRE=Country
TTITLE0=Little Bitty
TTITLE1=Don't Rock the Jukebox
TTITLE2=She's Got Rhythm
TTITLE3=Livin' on Love
TTITLE4=Chattahoochee
TTITLE5=Chasin' That Neon Rainbow 
TTITLE6=WWW.Memory
TTITLE7=Here in the Real World
TTITLE8=Murder on Music Row
TTITLE9=Franklin Road
EXTD=
EXTT0=
EXTT1=
EXTT2=
EXTT3=
EXTT4=
EXTT5=
EXTT6=
EXTT7=
EXTT8=
EXTT9=
PLAYORDER=
